<svg id="Calque_1" data-name="Calque 1" xmlns="http://www.w3.org/2000/svg" xmlns:xlink="http://www.w3.org/1999/xlink" viewBox="0 0 365.86 83.36"><defs><style>.cls-1,.cls-5,.cls-7{fill:none;}.cls-2{clip-path:url(#clip-path);}.cls-3{fill:#009e60;}.cls-4{fill:#f38030;}.cls-5,.cls-7{stroke:#fff;}.cls-5,.cls-7,.cls-8{stroke-miterlimit:10;}.cls-5{stroke-width:2.12px;}.cls-6{clip-path:url(#clip-path-2);}.cls-7{stroke-width:0.7px;}.cls-8{font-size:13px;fill:#646363;stroke:#646363;stroke-width:0.25px;font-family:Metropolis-Bold, Metropolis;font-weight:700;letter-spacing:0.17em;}</style><clipPath id="clip-path" transform="translate(-31.25 -34.45)"><rect class="cls-1" width="428" height="150.43"/></clipPath><clipPath id="clip-path-2" transform="translate(-31.25 -34.45)"><polygon class="cls-1" points="98.22 51.81 97.39 55.5 95.73 55.96 93.22 54.76 91.24 55.29 89.75 60.71 83.72 58.42 75.36 59.57 70.4 62.55 71.03 65.83 62.71 66.68 56.9 69.94 56.52 74.53 60.14 76.59 62.91 76.52 66.7 77.51 71.71 76.08 76.22 77.51 74.16 78.35 73.47 81.9 79.55 79.82 80.24 85.58 84.41 88.48 86.3 92.11 92.79 89.97 99.36 90.08 100.46 95.37 104.63 100.02 118.28 94.56 133.4 84.65 147.6 79.16 163.68 75.81 168.4 73.84 161.58 70.98 148.68 68.9 134.03 63.45 130.99 61.96 128 56.5 111.16 50.84 102.29 50.22 98.22 51.81"/></clipPath></defs><g class="cls-2"><path class="cls-3" d="M109.82,113.21,31.25,80.09l.5-5.29,77.33,33.3,3-2.44c14.63-8.72,26.81-6.41,31.24-5.07C156.72,81.36,182.51,78,183.57,77.93l-.93,5.68c-.24,0-24.63,2.12-36.55,20.81l-1,1.6-1.73-.76c-.52-.22-12.88-5.33-28.85,4.11Z" transform="translate(-31.25 -34.45)"/><polygon class="cls-4" points="130.33 36.53 137.14 39.39 132.43 41.36 116.35 44.7 102.15 50.2 87.03 60.1 73.38 65.57 69.21 60.92 68.11 55.62 61.54 55.52 55.05 57.65 53.15 54.02 48.99 51.13 48.3 45.37 42.22 47.44 42.91 43.89 44.96 43.05 40.45 41.63 35.45 43.05 31.65 42.06 28.89 42.14 25.27 40.08 25.64 35.49 31.46 32.23 39.78 31.37 39.15 28.09 44.1 25.12 52.47 23.96 58.5 26.25 59.99 20.83 61.97 20.3 64.48 21.51 66.14 21.05 66.97 17.36 71.04 15.77 79.91 16.38 96.75 22.05 99.74 27.51 102.78 29 117.43 34.45 130.33 36.53"/><polygon class="cls-5" points="130.33 36.53 137.14 39.39 132.43 41.36 116.35 44.7 102.15 50.2 87.03 60.1 73.38 65.57 69.21 60.92 68.11 55.62 61.54 55.52 55.05 57.65 53.15 54.02 48.99 51.13 48.3 45.37 42.22 47.44 42.91 43.89 44.96 43.05 40.45 41.63 35.45 43.05 31.65 42.06 28.89 42.14 25.27 40.08 25.64 35.49 31.46 32.23 39.78 31.37 39.15 28.09 44.1 25.12 52.47 23.96 58.5 26.25 59.99 20.83 61.97 20.3 64.48 21.51 66.14 21.05 66.97 17.36 71.04 15.77 79.91 16.38 96.75 22.05 99.74 27.51 102.78 29 117.43 34.45 130.33 36.53"/></g><g class="cls-6"><line class="cls-7" x1="33.17" y1="24.01" x2="107.39" y2="58.42"/><line class="cls-7" x1="38.98" y1="18.21" x2="113.19" y2="52.62"/><line class="cls-7" x1="51.96" y1="15.77" x2="126.18" y2="50.18"/><line class="cls-7" x1="57.37" y1="10.36" x2="131.59" y2="44.76"/><line class="cls-7" x1="29.14" y1="31.16" x2="103.36" y2="65.57"/><line class="cls-7" x1="14.8" y1="32.78" x2="89.01" y2="67.18"/><line class="cls-7" x1="17.41" y1="43.51" x2="89.77" y2="12.6"/><line class="cls-7" x1="34.68" y1="44.35" x2="107.04" y2="13.43"/><line class="cls-7" x1="40.13" y1="51.01" x2="112.5" y2="20.09"/><line class="cls-7" x1="53.27" y1="55.22" x2="125.63" y2="24.3"/><line class="cls-7" x1="61.32" y1="60.87" x2="133.69" y2="29.95"/></g><g class="cls-2"><polygon class="cls-5" points="130.33 36.53 137.14 39.39 132.43 41.36 116.35 44.7 102.15 50.2 87.03 60.1 73.38 65.57 69.21 60.92 68.11 55.62 61.54 55.52 55.05 57.65 53.15 54.02 48.99 51.13 48.3 45.37 42.22 47.44 42.91 43.89 44.96 43.05 40.45 41.63 35.45 43.05 31.65 42.06 28.89 42.14 25.27 40.08 25.64 35.49 31.46 32.23 39.78 31.37 39.15 28.09 44.1 25.12 52.47 23.96 58.5 26.25 59.99 20.83 61.97 20.3 64.48 21.51 66.14 21.05 66.97 17.36 71.04 15.77 79.91 16.38 96.75 22.05 99.74 27.51 102.78 29 117.43 34.45 130.33 36.53"/><path class="cls-3" d="M149.68,72.13l-1.37-1.45c-.51-.55-12.62-13.53-11.85-24.5a12.09,12.09,0,0,1,4.71-8.9,12.82,12.82,0,0,1,17.05.88c2.53,2.6,9.48,12.61-7.25,32.44ZM149.26,38a9.38,9.38,0,0,0-5.87,2.06A8.56,8.56,0,0,0,140,46.42c-.52,7.45,6.53,16.69,9.55,20.29,10.43-13.07,10.08-22,6.11-26.06A8.89,8.89,0,0,0,149.26,38" transform="translate(-31.25 -34.45)"/><path class="cls-3" d="M152.56,48.43A3.44,3.44,0,1,1,149.12,45a3.44,3.44,0,0,1,3.44,3.43" transform="translate(-31.25 -34.45)"/></g><text class="cls-8" transform="translate(165.83 79.46)">Agence Foncière Rurale</text><g class="cls-2"><path class="cls-3" d="M246.55,94.93H229.31l-1.44-5.56H215.19l-1.44,5.56H196.52l11.67-44.47h26.68ZM224.92,78.19,221.53,65.3l-3.39,12.89Z" transform="translate(-31.25 -34.45)"/><polygon class="cls-3" points="262.54 29.9 234.75 29.9 234.75 32.4 251.43 32.4 251.43 44.07 234.75 44.07 234.75 60.47 218.07 60.47 218.07 16 262.54 16 262.54 29.9"/><path class="cls-3" d="M341.32,72.69a20.68,20.68,0,0,1-7.23,15.9,24.37,24.37,0,0,1-32.79,0,21.1,21.1,0,0,1,0-31.8,24.4,24.4,0,0,1,32.79,0,20.71,20.71,0,0,1,7.23,15.9m-15.07,0a7.82,7.82,0,0,0-2.59-5.86,8.45,8.45,0,0,0-12,0,8,8,0,0,0,0,11.72,8.49,8.49,0,0,0,12,0,7.85,7.85,0,0,0,2.56-5.86" transform="translate(-31.25 -34.45)"/><path class="cls-3" d="M394.12,94.93H379.67q-5.55,0-11.11-5.56l-7.79-7.79V94.93H344.1V71h27.23a3.2,3.2,0,0,0,2.34-1,3.17,3.17,0,0,0,1-2.33,3.2,3.2,0,0,0-1-2.34,3.24,3.24,0,0,0-2.34-1H344.1V50.46h31.68a15.35,15.35,0,0,1,10.87,4.44,14.07,14.07,0,0,1,4.69,10.56,14.28,14.28,0,0,1-2.66,8.34,14.55,14.55,0,0,1-6.9,5.45A3.23,3.23,0,0,0,384.67,81h9.45Z" transform="translate(-31.25 -34.45)"/></g></svg>